<svg xmlns="http://www.w3.org/2000/svg" viewBox="0 0 445.3 447.32"><g id="cube"><polygon points="228.09 133.93 227.51 148.34 228.08 133.93 228.09 133.93" fill="#d0cfcb" stroke="#686868" stroke-linecap="round" stroke-linejoin="round" stroke-width="5.27"/><polygon points="272.34 106.03 228.09 133.93 228.51 123.46 263.41 101.18 282.91 88.72 282.79 99.43 272.34 106.03" fill="#d0cfcb" stroke="#686868" stroke-linecap="round" stroke-linejoin="round" stroke-width="5.27"/><polygon points="395.44 292.72 240.62 398.58 223.93 237.59 227.51 148.34 282.64 113.59 281.68 199.09 395.44 292.72" fill="#d0cfcb" stroke="#686868" stroke-linecap="round" stroke-linejoin="round" stroke-width="5.27"/><polygon points="179.38 108.64 166.19 101.64 166.19 91.47 188.53 102.93 228.51 123.46 228.09 133.93 227.65 134.2 179.38 108.64" fill="#e4e0d7" stroke="#686868" stroke-linecap="round" stroke-linejoin="round" stroke-width="5.27"/><polygon points="240.62 398.58 65.12 280.47 166.19 203.46 166.19 117.77 225.88 149.37 227.51 148.34 223.93 237.59 240.62 398.58" fill="#e4e0d7" stroke="#686868" stroke-linecap="round" stroke-linejoin="round" stroke-width="5.27"/><polygon points="165.41 117.36 152.87 94.6 166.19 101.64 179.38 108.64 227.65 134.2 228.09 133.93 227.51 148.34 225.88 149.37 165.41 117.36" fill="#d0cfcb" stroke="#686868" stroke-linecap="round" stroke-linejoin="round" stroke-width="5.27"/><polygon points="263.41 101.18 272.34 106.03 228.09 133.93 228.08 133.93 227.65 134.2 179.38 108.64 188.53 102.93 192.69 100.33 224.86 80.26 260.07 99.37 263.41 101.18" fill="#d0cfcb" stroke="#686868" stroke-linecap="round" stroke-linejoin="round" stroke-width="5.27"/><polygon points="284.32 112.53 282.64 113.59 282.65 111.62 284.32 112.53" fill="#d0cfcb" stroke="#686868" stroke-linecap="round" stroke-linejoin="round" stroke-width="5.27"/><polygon points="299.91 88.64 282.79 99.43 272.34 106.03 228.09 133.93 228.08 133.93 227.65 134.2 179.38 108.64 166.19 101.64 152.87 94.6 226.38 48.73 299.91 88.64" fill="#d0cfcb" stroke="#686868" stroke-linecap="round" stroke-linejoin="round" stroke-width="5.27"/><polygon points="179.8 93.51 228.47 119.28 275.5 89.63 227.65 63.66 179.8 93.51" fill="#d0cfcb" stroke="#686868" stroke-linecap="round" stroke-linejoin="round" stroke-width="5.27"/><polygon points="282.64 113.59 227.51 148.34 228.09 133.93 272.34 106.03 282.79 99.43 299.91 88.64 284.32 112.53 282.64 113.59" fill="#d0cfcb" stroke="#686868" stroke-linecap="round" stroke-linejoin="round" stroke-width="5.27"/><line x1="227.65" y1="134.2" x2="225.88" y2="149.36" fill="#d0cfcb" stroke="#686868" stroke-linecap="round" stroke-linejoin="round" stroke-width="5.27"/><line x1="227.65" y1="63.66" x2="227.65" y2="119.28" fill="#d0cfcb" stroke="#686868" stroke-linecap="round" stroke-linejoin="round" stroke-width="5.27"/><polygon points="143 240.91 91.27 280.89 238.81 381.15 228.09 296.21 143 240.91" fill="#eece77"/><polygon points="311.26 246.14 367.66 294.04 238.81 381.15 228.09 296.21 311.26 246.14" fill="#dbba65"/><polygon points="143 240.91 224.86 203.47 311.26 246.14 228.09 296.21 143 240.91" fill="#eed390"/><polyline points="227.51 148.34 223.93 237.59 240.62 398.59" fill="none" stroke="#686868" stroke-miterlimit="10" stroke-width="5.27"/><line x1="95.99" y1="257.74" x2="118.5" y2="273.54" fill="#d0cfcb" stroke="#686868" stroke-linecap="round" stroke-linejoin="round" stroke-width="2.64"/><line x1="109.42" y1="246.98" x2="122.38" y2="256.08" fill="#d0cfcb" stroke="#686868" stroke-linecap="round" stroke-linejoin="round" stroke-width="0.98"/><line x1="122.38" y1="237.37" x2="135.34" y2="246.47" fill="#d0cfcb" stroke="#686868" stroke-linecap="round" stroke-linejoin="round" stroke-width="0.98"/><line x1="134.13" y1="228.27" x2="147.09" y2="237.37" fill="#d0cfcb" stroke="#686868" stroke-linecap="round" stroke-linejoin="round" stroke-width="0.98"/><line x1="157.48" y1="212.57" x2="170.44" y2="221.66" fill="#d0cfcb" stroke="#686868" stroke-linecap="round" stroke-linejoin="round" stroke-width="0.98"/><line x1="166.19" y1="203.47" x2="179.15" y2="212.57" fill="#d0cfcb" stroke="#686868" stroke-linecap="round" stroke-linejoin="round" stroke-width="0.98"/><line x1="167.17" y1="188.15" x2="180.13" y2="197.25" fill="#d0cfcb" stroke="#686868" stroke-linecap="round" stroke-linejoin="round" stroke-width="0.98"/><line x1="144.85" y1="221.6" x2="166.19" y2="236.58" fill="#d0cfcb" stroke="#686868" stroke-linecap="round" stroke-linejoin="round" stroke-width="2.64"/><line x1="165.04" y1="171" x2="191.4" y2="189.8" fill="#d0cfcb" stroke="#686868" stroke-linecap="round" stroke-linejoin="round" stroke-width="2.64"/><line x1="258.37" y1="185.84" x2="226.83" y2="206" fill="#d0cfcb" stroke="#686868" stroke-linecap="round" stroke-linejoin="round" stroke-width="2.64"/><line x1="259.64" y1="249.84" x2="228.1" y2="270" fill="#d0cfcb" stroke="#686868" stroke-linecap="round" stroke-linejoin="round" stroke-width="2.64"/><line x1="235.8" y1="345.71" x2="270.8" y2="324.41" fill="#d0cfcb" stroke="#686868" stroke-linecap="round" stroke-linejoin="round" stroke-width="2.64"/><line x1="225.88" y1="238.48" x2="241.04" y2="228.27" fill="#d0cfcb" stroke="#686868" stroke-linecap="round" stroke-linejoin="round" stroke-width="0.98"/><line x1="226.77" y1="224.28" x2="241.93" y2="214.07" fill="#d0cfcb" stroke="#686868" stroke-linecap="round" stroke-linejoin="round" stroke-width="0.98"/><line x1="231.23" y1="290.23" x2="246.39" y2="280.01" fill="#d0cfcb" stroke="#686868" stroke-linecap="round" stroke-linejoin="round" stroke-width="0.98"/><line x1="233.46" y1="307.87" x2="248.62" y2="297.66" fill="#d0cfcb" stroke="#686868" stroke-linecap="round" stroke-linejoin="round" stroke-width="0.98"/><line x1="235.02" y1="324.41" x2="250.18" y2="314.2" fill="#d0cfcb" stroke="#686868" stroke-linecap="round" stroke-linejoin="round" stroke-width="0.98"/><line x1="227.44" y1="252.69" x2="242.6" y2="242.48" fill="#d0cfcb" stroke="#686868" stroke-linecap="round" stroke-linejoin="round" stroke-width="0.98"/></g></svg>