<svg xmlns="http://www.w3.org/2000/svg" viewBox="0 0 700.08 187.84"><defs><style>.cls-1{fill:#4c4c4c;opacity:0;}.cls-2{fill:#eece77;}.cls-3,.cls-8,.cls-9{fill:#d0cfcb;}.cls-3,.cls-4,.cls-7,.cls-8,.cls-9{stroke:#686868;}.cls-3,.cls-4,.cls-8,.cls-9{stroke-linecap:round;stroke-linejoin:round;}.cls-3,.cls-4,.cls-7{stroke-width:2px;}.cls-4{fill:#e4e0d7;}.cls-5{fill:#dbba65;}.cls-6{fill:#eed390;}.cls-10,.cls-11,.cls-12,.cls-7{fill:none;stroke-miterlimit:10;}.cls-9{stroke-width:0.37px;}.cls-10,.cls-11,.cls-12{stroke:#a5a5a5;}.cls-10{stroke-width:11px;}.cls-11{stroke-width:10px;}.cls-12{stroke-width:8px;}</style></defs><g id="house"><rect class="cls-1" x="-0.5" width="700.59" height="187.84"/></g><g id="cube"><polygon class="cls-2" points="439.77 70.13 451.08 70.13 451.08 94.08 466.49 114.23 429.96 114.23 439.77 96.41 439.77 70.13"/><polygon class="cls-2" points="308.96 59.65 398.63 59.65 353.62 35.71 308.96 59.65"/><polygon class="cls-3" points="100.77 58.41 100.55 63.87 100.76 58.41 100.77 58.41"/><polygon class="cls-3" points="117.55 47.82 100.77 58.41 100.92 54.44 114.16 45.98 121.56 41.26 121.51 45.32 117.55 47.82"/><polygon class="cls-3" points="164.24 118.64 105.52 158.79 99.19 97.73 100.55 63.87 121.46 50.69 121.09 83.13 164.24 118.64"/><polygon class="cls-4" points="82.29 48.81 77.28 46.16 77.28 42.3 85.76 46.65 100.92 54.44 100.77 58.41 100.6 58.51 82.29 48.81"/><polygon class="cls-4" points="105.52 158.79 38.95 113.99 77.28 84.78 77.28 52.28 99.93 64.26 100.55 63.87 99.19 97.73 105.52 158.79"/><polygon class="cls-3" points="76.99 52.12 72.23 43.49 77.28 46.16 82.29 48.81 100.6 58.51 100.77 58.41 100.55 63.87 99.93 64.26 76.99 52.12"/><polygon class="cls-3" points="114.16 45.98 117.55 47.82 100.77 58.41 100.76 58.41 100.6 58.51 82.29 48.81 85.76 46.65 87.34 45.66 99.54 38.05 112.9 45.3 114.16 45.98"/><polygon class="cls-3" points="122.09 50.29 121.46 50.69 121.46 49.94 122.09 50.29"/><polygon class="cls-3" points="128.01 41.23 121.51 45.32 117.55 47.82 100.77 58.41 100.76 58.41 100.6 58.51 82.29 48.81 77.28 46.16 72.23 43.49 100.12 26.09 128.01 41.23"/><polygon class="cls-3" points="82.45 43.08 100.91 52.85 118.75 41.6 100.6 31.75 82.45 43.08"/><polygon class="cls-3" points="121.46 50.69 100.55 63.87 100.77 58.41 117.55 47.82 121.51 45.32 128.01 41.23 122.09 50.29 121.46 50.69"/><line class="cls-3" x1="100.6" y1="58.51" x2="99.93" y2="64.26"/><line class="cls-3" x1="100.6" y1="31.75" x2="100.6" y2="52.85"/><polygon class="cls-2" points="68.49 98.99 48.87 114.15 104.83 152.19 100.77 119.97 68.49 98.99"/><polygon class="cls-5" points="132.31 100.97 153.71 119.14 104.83 152.19 100.77 119.97 132.31 100.97"/><polygon class="cls-6" points="68.49 98.99 99.54 84.78 132.31 100.97 100.77 119.97 68.49 98.99"/><polyline class="cls-7" points="100.55 63.87 99.19 97.73 105.52 158.8"/><line class="cls-8" x1="50.66" y1="105.37" x2="59.2" y2="111.37"/><line class="cls-9" x1="55.75" y1="101.29" x2="60.67" y2="104.74"/><line class="cls-9" x1="60.67" y1="97.64" x2="65.58" y2="101.1"/><line class="cls-9" x1="65.12" y1="94.19" x2="70.04" y2="97.64"/><line class="cls-9" x1="73.98" y1="88.24" x2="78.9" y2="91.69"/><line class="cls-9" x1="77.28" y1="84.78" x2="82.2" y2="88.24"/><line class="cls-9" x1="77.66" y1="78.98" x2="82.57" y2="82.43"/><line class="cls-8" x1="69.19" y1="91.66" x2="77.28" y2="97.35"/><line class="cls-8" x1="76.85" y1="72.47" x2="86.85" y2="79.6"/><line class="cls-8" x1="112.25" y1="78.1" x2="100.29" y2="85.75"/><line class="cls-8" x1="112.73" y1="102.37" x2="100.77" y2="110.02"/><line class="cls-8" x1="103.69" y1="138.74" x2="116.97" y2="130.66"/><line class="cls-9" x1="99.93" y1="98.07" x2="105.68" y2="94.19"/><line class="cls-9" x1="100.26" y1="92.68" x2="106.01" y2="88.8"/><line class="cls-9" x1="101.96" y1="117.69" x2="107.71" y2="113.82"/><line class="cls-9" x1="102.8" y1="124.39" x2="108.55" y2="120.51"/><line class="cls-9" x1="103.39" y1="130.66" x2="109.14" y2="126.79"/><line class="cls-9" x1="100.52" y1="103.46" x2="106.27" y2="99.58"/><line class="cls-10" x1="196.9" y1="41.42" x2="223.45" y2="41.42"/><line class="cls-10" x1="196.9" y1="75.74" x2="223.45" y2="75.74"/><line class="cls-10" x1="196.9" y1="92.44" x2="223.45" y2="92.44"/><line class="cls-10" x1="190.79" y1="57.98" x2="229.07" y2="57.98"/><rect class="cls-10" x="197.55" y="110.98" width="25.23" height="25.23"/><path class="cls-10" d="M238.71,75.33c8-3.83,9.32-14.68,9.32-14.68V43.42h27.61V61a16.61,16.61,0,0,0,14,15.15"/><path class="cls-10" d="M236,136.21s7.31-3.73,23.61-15.59S279.8,86.41,279.8,86.41H244.11s10,38.71,48.24,49.8"/><polyline class="cls-10" points="306.7 62.33 354.6 35.36 403.07 62.1"/><line class="cls-10" x1="323.67" y1="73.74" x2="380.82" y2="73.74"/><line class="cls-10" x1="308.96" y1="99.58" x2="401.18" y2="99.58"/><polyline class="cls-10" points="345.55 76.71 345.55 136.21 393.64 136.21 393.64 126.31"/><line class="cls-10" x1="321.13" y1="51.7" x2="321.13" y2="33.66"/><line class="cls-11" x1="421.11" y1="45.46" x2="473.73" y2="45.46"/><rect class="cls-11" x="427.52" y="70.13" width="38.98" height="66.08"/><polyline class="cls-12" points="439.77 50.41 439.77 96.41 427.52 116.27"/><polyline class="cls-12" points="452.6 50.41 452.62 96.09 466.49 114.23"/><line class="cls-12" x1="427.52" y1="118.24" x2="466.49" y2="118.24"/><polyline class="cls-11" points="483.21 47.72 516.89 47.72 516.89 85.85 485.99 85.85 485.99 136.21 521.07 136.21 521.07 117.58"/><line class="cls-10" x1="593.3" y1="33.15" x2="593.3" y2="55.43"/><polyline class="cls-10" points="539.91 57.08 581.33 57.08 649.83 57.08"/><polyline class="cls-10" points="578.44 57.08 578.44 84.31 578.44 102.47 543.37 139.19"/><polyline class="cls-10" points="578.44 84.31 628.37 84.31 628.37 135.89 601.14 135.89"/></g></svg>